<svg width="141" height="36" viewBox="0 0 141 36" fill="none" xmlns="http://www.w3.org/2000/svg">
<g clip-path="url(#clip0_1364_170)">
<path d="M11 23.5C11.3647 23.5 11.7144 23.3551 11.9723 23.0973C12.2301 22.8394 12.375 22.4897 12.375 22.125C12.375 21.7603 12.2301 21.4106 11.9723 21.1527C11.7144 20.8949 11.3647 20.75 11 20.75C10.6353 20.75 10.2856 20.8949 10.0277 21.1527C9.76987 21.4106 9.625 21.7603 9.625 22.125C9.625 22.4897 9.76987 22.8394 10.0277 23.0973C10.2856 23.3551 10.6353 23.5 11 23.5Z" fill="#AF17D5"/>
<path d="M5.5 7C4.77065 7 4.07118 7.28973 3.55546 7.80546C3.03973 8.32118 2.75 9.02065 2.75 9.75V26.25C2.75 26.9793 3.03973 27.6788 3.55546 28.1945C4.07118 28.7103 4.77065 29 5.5 29H16.5C17.2293 29 17.9288 28.7103 18.4445 28.1945C18.9603 27.6788 19.25 26.9793 19.25 26.25V9.75C19.25 9.02065 18.9603 8.32118 18.4445 7.80546C17.9288 7.28973 17.2293 7 16.5 7H5.5ZM6.875 9.75H15.125C15.4897 9.75 15.8394 9.89487 16.0973 10.1527C16.3551 10.4106 16.5 10.7603 16.5 11.125V14.5625C16.5 14.9272 16.3551 15.2769 16.0973 15.5348C15.8394 15.7926 15.4897 15.9375 15.125 15.9375H6.875C6.51033 15.9375 6.16059 15.7926 5.90273 15.5348C5.64487 15.2769 5.5 14.9272 5.5 14.5625V11.125C5.5 10.7603 5.64487 10.4106 5.90273 10.1527C6.16059 9.89487 6.51033 9.75 6.875 9.75ZM11 26.25C10.4583 26.25 9.9219 26.1433 9.42143 25.936C8.92096 25.7287 8.46623 25.4249 8.08318 25.0418C7.70014 24.6588 7.3963 24.204 7.189 23.7036C6.9817 23.2031 6.875 22.6667 6.875 22.125C6.875 21.5833 6.9817 21.0469 7.189 20.5464C7.3963 20.046 7.70014 19.5912 8.08318 19.2082C8.46623 18.8251 8.92096 18.5213 9.42143 18.314C9.9219 18.1067 10.4583 18 11 18C12.094 18 13.1432 18.4346 13.9168 19.2082C14.6904 19.9818 15.125 21.031 15.125 22.125C15.125 23.219 14.6904 24.2682 13.9168 25.0418C13.1432 25.8154 12.094 26.25 11 26.25Z" fill="#AF17D5"/>
</g>
<path d="M48.1758 27.918L42.3516 28.5742L42.8203 15.4727L36.6914 25.75L31.4531 19.4102C31.1719 20.6992 30.8672 21.8516 30.5391 22.8672C30.2109 23.875 29.8633 24.75 29.4961 25.4922C29.0117 26.4766 28.4258 27.3594 27.7383 28.1406C27.0508 28.9297 26.2656 29.6211 25.3828 30.2148L24.9141 29.2305C26.0156 28.4102 26.9453 27.2578 27.7031 25.7734C28.4688 24.2891 29.0703 22.4727 29.5078 20.3242L32.0508 7.82031L38.1562 19.2344L43.6055 8.19531L46.2305 8.28906L48.1758 27.918ZM36.8438 21.4141L32.625 14.125L32.0273 17.2422L36.1523 22.6445L36.8438 21.4141ZM45.6914 19.0352V18.5781L45.0586 18.8125C44.9961 19.9219 44.8477 21.0078 44.6133 22.0703C44.3867 23.125 44.0781 24.1523 43.6875 25.1523L44.8594 25.3398C45.1484 24.1602 45.3594 23.0469 45.4922 22C45.625 20.9453 45.6914 19.957 45.6914 19.0352ZM58.4766 18.7305C58.0391 19.6367 57.668 20.5508 57.3633 21.4727C57.0664 22.3945 56.8398 23.3242 56.6836 24.2617L55.7344 23.8633C56.0469 22.7773 56.4023 21.7617 56.8008 20.8164C57.1992 19.8711 57.6406 19.0039 58.125 18.2148L58.4766 18.7305ZM62.7305 28.75L58.8398 28.2344L59.168 25.4922C58.582 26.3594 57.9531 27.0078 57.2812 27.4375C56.6094 27.8672 55.8945 28.082 55.1367 28.082C54.1992 28.082 53.4297 27.7344 52.8281 27.0391C52.2266 26.3438 51.7891 25.2969 51.5156 23.8984L52.4414 23.6641L52.3828 22.832L51.3633 23.125L51.1641 22.0469L52.1953 21.7539L52.1367 20.9805L51 21.2383L50.7656 20.0664L51.9609 19.8086L51.8438 19L50.625 19.2344L50.4609 18.332L54.9258 17.5586C54.8867 19.4883 54.8555 20.9492 54.832 21.9414C54.8164 22.9336 54.8086 23.4531 54.8086 23.5C54.8086 24.4297 54.9258 25.125 55.1602 25.5859C55.3945 26.0391 55.7461 26.2656 56.2148 26.2656C56.7148 26.2656 57.2344 26.0234 57.7734 25.5391C58.3125 25.0547 58.8672 24.332 59.4375 23.3711L60.0703 17.8984L62.2148 17.7812L62.7305 28.75ZM74.168 19C74.168 19.6484 74.0273 20.1328 73.7461 20.4531C73.4648 20.7656 73.043 20.9219 72.4805 20.9219C71.9727 20.9219 71.5898 20.8281 71.332 20.6406C71.082 20.4453 70.957 20.1562 70.957 19.7734C70.957 19.5859 71.0078 19.418 71.1094 19.2695C71.2109 19.1133 71.3633 18.9805 71.5664 18.8711L71.9062 19.1172C71.8516 19.1797 71.8086 19.2422 71.7773 19.3047C71.7461 19.3594 71.7305 19.4141 71.7305 19.4688C71.7305 19.625 71.7773 19.7422 71.8711 19.8203C71.9648 19.8906 72.1016 19.9258 72.2812 19.9258C72.5312 19.9258 72.7148 19.8672 72.832 19.75C72.9492 19.625 73.0078 19.4336 73.0078 19.1758C73.0078 18.9727 72.9531 18.7891 72.8438 18.625C72.7422 18.4609 72.5859 18.3203 72.375 18.2031C72.2109 18.1094 72.0273 18.0391 71.8242 17.9922C71.6289 17.9453 71.4141 17.9219 71.1797 17.9219C70.8828 17.9219 70.6133 17.9609 70.3711 18.0391C70.1367 18.1094 69.9141 18.2188 69.7031 18.3672C69.4766 18.5312 69.3086 18.7266 69.1992 18.9531C69.0898 19.1797 69.0352 19.4336 69.0352 19.7148C69.0352 19.9883 69.1406 20.2578 69.3516 20.5234C69.5625 20.7812 69.8711 21.0391 70.2773 21.2969C71.0117 21.7656 71.5703 22.1211 71.9531 22.3633C72.3438 22.6055 72.5508 22.7383 72.5742 22.7617C72.9961 23.1133 73.3086 23.4961 73.5117 23.9102C73.7148 24.3164 73.8164 24.7656 73.8164 25.2578C73.8164 25.9141 73.6914 26.5078 73.4414 27.0391C73.1992 27.5703 72.8242 28.0312 72.3164 28.4219C71.8555 28.7812 71.3359 29.0547 70.7578 29.2422C70.1875 29.4297 69.5625 29.5234 68.8828 29.5234C68.4375 29.5234 68.0117 29.4688 67.6055 29.3594C67.1992 29.2578 66.8047 29.1016 66.4219 28.8906C66.0312 28.6797 65.6875 28.4219 65.3906 28.1172C65.1016 27.8125 64.8594 27.4648 64.6641 27.0742L65.5312 26.2656C65.8906 26.9375 66.332 27.4375 66.8555 27.7656C67.3789 28.0938 67.9805 28.2578 68.6602 28.2578C69.2773 28.2578 69.7812 28.0781 70.1719 27.7188C70.5703 27.3516 70.7695 26.8672 70.7695 26.2656C70.7695 25.875 70.6797 25.4961 70.5 25.1289C70.3281 24.7539 70.0625 24.3906 69.7031 24.0391C69.375 23.75 69.043 23.4609 68.707 23.1719C68.3711 22.8828 68.0352 22.5938 67.6992 22.3047C67.3477 21.9453 67.082 21.5703 66.9023 21.1797C66.7227 20.7891 66.6328 20.3789 66.6328 19.9492C66.6328 19.4258 66.7461 18.957 66.9727 18.543C67.1992 18.1289 67.5312 17.7656 67.9688 17.4531C68.3516 17.1797 68.7773 16.9805 69.2461 16.8555C69.7227 16.7305 70.2383 16.668 70.793 16.668C71.2539 16.668 71.6719 16.7109 72.0469 16.7969C72.4219 16.875 72.7539 16.9922 73.043 17.1484C73.4258 17.3516 73.707 17.6094 73.8867 17.9219C74.0742 18.2344 74.168 18.5938 74.168 19ZM67.8867 24.3203C67.8867 24.7188 67.7461 25.0586 67.4648 25.3398C67.1836 25.6133 66.8477 25.75 66.457 25.75C66.0664 25.75 65.7305 25.6094 65.4492 25.3281C65.168 25.0469 65.0273 24.7109 65.0273 24.3203C65.0273 23.9297 65.168 23.5938 65.4492 23.3125C65.7305 23.0312 66.0664 22.8906 66.457 22.8906C66.8477 22.8906 67.1836 23.0312 67.4648 23.3125C67.7461 23.5938 67.8867 23.9297 67.8867 24.3203ZM81.457 14.4766L81.1641 15.1914L80.1445 14.6641C80.0352 14.8047 79.9141 14.918 79.7812 15.0039C79.6484 15.0898 79.5 15.1523 79.3359 15.1914L79.5703 16.1523L78.7734 16.2695L78.5742 15.2617C78.4492 15.2383 78.3242 15.1953 78.1992 15.1328C78.082 15.0625 77.9688 14.9844 77.8594 14.8984L77.0859 15.6133L76.5469 14.9922L77.4492 14.3359C77.3711 14.1875 77.3242 14.0312 77.3086 13.8672C77.3008 13.7031 77.3164 13.5273 77.3555 13.3398L76.3125 12.6836L76.6992 12.0508L77.6602 12.707C77.7539 12.5898 77.8594 12.4922 77.9766 12.4141C78.1016 12.3281 78.2422 12.2617 78.3984 12.2148L78.1992 10.832H78.9492L78.9961 12.1211C79.168 12.1445 79.3242 12.1836 79.4648 12.2383C79.6055 12.293 79.7383 12.3633 79.8633 12.4492L80.6836 11.793L81.2227 12.332L80.2852 12.9648C80.3477 13.0508 80.3906 13.1836 80.4141 13.3633C80.4375 13.543 80.4453 13.7695 80.4375 14.043L81.457 14.4766ZM81.0586 29.3477L76.125 28.7148L77.9531 17.3008H80.1445L81.0586 29.3477ZM79.6641 23.3008C79.6641 23.0273 79.5938 22.8203 79.4531 22.6797C79.3203 22.5391 79.1133 22.4688 78.832 22.4688C78.543 22.4688 78.3281 22.5391 78.1875 22.6797C78.0469 22.8203 77.9766 23.0273 77.9766 23.3008C77.9766 23.582 78.0469 23.793 78.1875 23.9336C78.3281 24.0742 78.543 24.1445 78.832 24.1445C79.1133 24.1445 79.3203 24.0742 79.4531 23.9336C79.5938 23.793 79.6641 23.582 79.6641 23.3008ZM79.6641 26.4766C79.6641 26.1797 79.5586 25.9258 79.3477 25.7148C79.1367 25.5039 78.8789 25.3984 78.5742 25.3984C78.2852 25.3984 78.0352 25.5039 77.8242 25.7148C77.6133 25.9258 77.5078 26.1797 77.5078 26.4766C77.5078 26.7734 77.6133 27.0273 77.8242 27.2383C78.0352 27.4414 78.2852 27.543 78.5742 27.543C78.8789 27.543 79.1367 27.4414 79.3477 27.2383C79.5586 27.0273 79.6641 26.7734 79.6641 26.4766ZM94.6289 25.4922C93.8867 26.4844 93.0664 27.2266 92.168 27.7188C91.2773 28.2109 90.3047 28.457 89.25 28.457C87.6172 28.457 86.2852 27.957 85.2539 26.957C84.2305 25.9492 83.7188 24.6328 83.7188 23.0078C83.7188 21.4062 84.3047 20.0195 85.4766 18.8477C86.6484 17.668 88.0312 17.0781 89.625 17.0781C90.1016 17.0781 90.5391 17.1172 90.9375 17.1953C91.3438 17.2734 91.707 17.3906 92.0273 17.5469C92.457 17.75 92.7773 18.0078 92.9883 18.3203C93.1992 18.6328 93.3047 18.9961 93.3047 19.4102C93.3047 19.793 93.1445 20.1719 92.8242 20.5469C92.5117 20.9219 92.0352 21.293 91.3945 21.6602L90.8906 21.1797C91.0547 21.0156 91.1875 20.8477 91.2891 20.6758C91.3984 20.4961 91.4727 20.3125 91.5117 20.125L90.1172 19.7734L90.2812 19.2695L91.5469 19.4453C91.5234 19.25 91.4531 19.0742 91.3359 18.918C91.2266 18.7617 91.0703 18.625 90.8672 18.5078C90.6953 18.4062 90.5117 18.332 90.3164 18.2852C90.1289 18.2383 89.9297 18.2148 89.7188 18.2148C89.6094 18.2148 89.4922 18.2227 89.3672 18.2383C89.25 18.2461 89.1289 18.2578 89.0039 18.2734L89.2734 20.1016L88.7344 20.2305L88.2539 18.6367C87.8945 18.8008 87.582 19.0352 87.3164 19.3398C87.0586 19.6445 86.8516 20.0117 86.6953 20.4414L88.3125 20.9219L88.0781 21.5195L86.4844 21.1211C86.4219 21.3008 86.3711 21.5156 86.332 21.7656C86.3008 22.0078 86.2852 22.2891 86.2852 22.6094C86.2852 22.7578 86.293 22.9023 86.3086 23.043C86.3242 23.1758 86.3477 23.3047 86.3789 23.4297L87.7148 22.9727L88.0781 23.6641L86.543 24.2031C86.6133 24.4375 86.7227 24.6797 86.8711 24.9297C87.0195 25.1719 87.2031 25.4258 87.4219 25.6914L88.4883 24.8594L89.0039 25.2812L88.0781 26.1719C88.3359 26.375 88.625 26.5273 88.9453 26.6289C89.2734 26.7227 89.6445 26.7695 90.0586 26.7695L90.1641 25.3984H90.7734L90.8906 26.7461C91.1719 26.7227 91.4453 26.668 91.7109 26.582C91.9844 26.4883 92.2578 26.3633 92.5312 26.207L92.1094 25.0352L92.6484 24.8359L93.1055 25.7852C93.2383 25.6836 93.375 25.5625 93.5156 25.4219C93.6641 25.2734 93.8125 25.1055 93.9609 24.918L94.6289 25.4922ZM110.52 21.8359C110.52 22.8984 110.309 23.8398 109.887 24.6602C109.465 25.4727 108.836 26.1641 108 26.7344C107.281 27.2266 106.461 27.5938 105.539 27.8359C104.625 28.0781 103.605 28.1992 102.48 28.1992C101.762 28.1992 101.004 28.1523 100.207 28.0586C99.4102 27.9648 98.5781 27.8125 97.7109 27.6016L96.8789 7.71484C97.2539 7.67578 97.6211 7.64453 97.9805 7.62109C98.3477 7.59766 98.6992 7.58594 99.0352 7.58594C100.004 7.58594 100.902 7.67578 101.73 7.85547C102.559 8.02734 103.316 8.29297 104.004 8.65234C104.879 9.10547 105.531 9.66406 105.961 10.3281C106.398 10.9922 106.617 11.7617 106.617 12.6367C106.617 13.0195 106.57 13.4102 106.477 13.8086C106.383 14.1992 106.238 14.5938 106.043 14.9922C107.379 15.5625 108.457 16.4844 109.277 17.7578C110.105 19.0234 110.52 20.3828 110.52 21.8359ZM103.336 15.4961L102.82 9.48438C102.711 9.375 102.527 9.26953 102.27 9.16797C102.02 9.05859 101.695 8.95312 101.297 8.85156L100.43 17.2656C101.086 17.0547 101.656 16.8008 102.141 16.5039C102.633 16.207 103.031 15.8711 103.336 15.4961ZM106.395 19.9375C106.395 19.2344 106.262 18.5938 105.996 18.0156C105.738 17.4375 105.348 16.9141 104.824 16.4453C104.199 17 103.512 17.4609 102.762 17.8281C102.012 18.1953 101.195 18.4648 100.312 18.6367L99.6211 26.0898C100.52 26.0586 101.355 25.8945 102.129 25.5977C102.902 25.3008 103.621 24.8789 104.285 24.332C104.996 23.7461 105.523 23.0859 105.867 22.3516C106.219 21.6172 106.395 20.8125 106.395 19.9375ZM109.043 21.6953C109.043 21.4219 108.973 21.2148 108.832 21.0742C108.699 20.9336 108.492 20.8633 108.211 20.8633C107.93 20.8633 107.719 20.9336 107.578 21.0742C107.438 21.2148 107.367 21.4219 107.367 21.6953C107.367 21.9766 107.438 22.1875 107.578 22.3281C107.719 22.4609 107.93 22.5273 108.211 22.5273C108.492 22.5273 108.699 22.4609 108.832 22.3281C108.973 22.1875 109.043 21.9766 109.043 21.6953ZM108.176 24.4375C108.176 24.1484 108.07 23.8984 107.859 23.6875C107.656 23.4766 107.402 23.3711 107.098 23.3711C106.793 23.3711 106.535 23.4766 106.324 23.6875C106.121 23.8984 106.02 24.1484 106.02 24.4375C106.02 24.7422 106.121 25 106.324 25.2109C106.535 25.4141 106.793 25.5156 107.098 25.5156C107.402 25.5156 107.656 25.4141 107.859 25.2109C108.07 25 108.176 24.7422 108.176 24.4375ZM105.551 26.2305C105.551 25.957 105.48 25.75 105.34 25.6094C105.199 25.4688 104.988 25.3984 104.707 25.3984C104.434 25.3984 104.227 25.4688 104.086 25.6094C103.945 25.75 103.875 25.957 103.875 26.2305C103.875 26.5117 103.945 26.7227 104.086 26.8633C104.227 27.0039 104.434 27.0742 104.707 27.0742C104.988 27.0742 105.199 27.0039 105.34 26.8633C105.48 26.7227 105.551 26.5117 105.551 26.2305ZM104.707 19.1172C103.996 19.9609 103.355 20.8398 102.785 21.7539C102.215 22.668 101.711 23.6172 101.273 24.6016L100.582 24.625C100.941 23.5938 101.379 22.5742 101.895 21.5664C102.418 20.5508 103.02 19.5469 103.699 18.5547L104.707 19.1172ZM125.707 21.7188L124.242 22.1172C124.266 22.2656 124.285 22.4258 124.301 22.5977C124.316 22.7617 124.324 22.9375 124.324 23.125C124.324 23.4062 124.305 23.6836 124.266 23.957C124.227 24.2305 124.168 24.5039 124.09 24.7773L125.262 25.3164L124.664 26.3477L123.738 25.6914C123.441 26.3242 123.059 26.8594 122.59 27.2969C122.121 27.7344 121.566 28.082 120.926 28.3398L121.254 29.7344L120.176 30.0039L119.965 28.6328C119.73 28.6719 119.523 28.6992 119.344 28.7148C119.172 28.7383 119.023 28.75 118.898 28.75C118.43 28.75 117.969 28.6914 117.516 28.5742C117.07 28.457 116.641 28.2734 116.227 28.0234L115.359 29.3711L114.434 28.832L115.418 27.4258C115.105 27.168 114.828 26.8789 114.586 26.5586C114.352 26.2383 114.152 25.8906 113.988 25.5156L112.523 25.9727L112.312 24.9766L113.648 24.6836C113.578 24.3945 113.527 24.1172 113.496 23.8516C113.465 23.5859 113.449 23.3438 113.449 23.125C113.449 22.8828 113.461 22.6484 113.484 22.4219C113.516 22.1875 113.562 21.9648 113.625 21.7539L112.312 21.332L112.582 20.3242L113.93 20.8867C114.117 20.4102 114.359 19.9766 114.656 19.5859C114.961 19.1953 115.316 18.8516 115.723 18.5547L114.938 17.3242L115.84 16.7031L116.613 18.0156C116.973 17.8438 117.34 17.7148 117.715 17.6289C118.098 17.543 118.492 17.5 118.898 17.5C119.305 17.5 119.688 17.543 120.047 17.6289C120.414 17.707 120.766 17.8242 121.102 17.9805L121.723 16.8672L122.637 17.3828L122.004 18.5195C122.465 18.8555 122.859 19.2422 123.188 19.6797C123.516 20.1172 123.789 20.6094 124.008 21.1562L125.438 20.5234L125.707 21.7188ZM121.043 23.125C121.043 22.6328 120.996 22.1797 120.902 21.7656C120.809 21.3516 120.656 20.9727 120.445 20.6289C120.195 20.2148 119.898 19.9062 119.555 19.7031C119.211 19.4922 118.809 19.3867 118.348 19.3867C117.902 19.3867 117.504 19.4922 117.152 19.7031C116.801 19.9062 116.504 20.2188 116.262 20.6406C116.059 20.9844 115.906 21.3672 115.805 21.7891C115.711 22.2031 115.664 22.6484 115.664 23.125C115.664 23.6328 115.711 24.0977 115.805 24.5195C115.906 24.9336 116.055 25.3086 116.25 25.6445C116.492 26.0664 116.789 26.3789 117.141 26.582C117.492 26.7852 117.895 26.8867 118.348 26.8867C118.816 26.8867 119.227 26.7852 119.578 26.582C119.93 26.3789 120.223 26.0664 120.457 25.6445C120.645 25.3086 120.789 24.9336 120.891 24.5195C120.992 24.0977 121.043 23.6328 121.043 23.125ZM140.051 21.8125C140.051 22.2109 139.91 22.5547 139.629 22.8438C139.348 23.125 139.008 23.2656 138.609 23.2656C138.203 23.2656 137.855 23.125 137.566 22.8438C137.285 22.5547 137.145 22.2109 137.145 21.8125C137.145 21.4219 137.289 21.0859 137.578 20.8047C137.875 20.5234 138.219 20.3828 138.609 20.3828C138.992 20.3828 139.328 20.5234 139.617 20.8047C139.906 21.0859 140.051 21.4219 140.051 21.8125ZM129.973 22.6445C129.973 23.0508 129.828 23.3945 129.539 23.6758C129.258 23.9492 128.91 24.0859 128.496 24.0859C128.098 24.0859 127.758 23.9492 127.477 23.6758C127.203 23.3945 127.066 23.0508 127.066 22.6445C127.066 22.2539 127.207 21.918 127.488 21.6367C127.77 21.3555 128.105 21.2148 128.496 21.2148C128.895 21.2148 129.238 21.3555 129.527 21.6367C129.824 21.918 129.973 22.2539 129.973 22.6445ZM138.82 26.6289L135.832 28.9258L132.949 24.1445L128.977 28.7734L128.203 28.082L132.059 22.7148L128.953 17.4766L130.383 16.5508L133.688 20.5L136.336 16.7617L138.141 18.0977L134.871 21.8945L138.82 26.6289Z" fill="#AF17D5"/>
<defs>
<clipPath id="clip0_1364_170">
<rect width="22" height="22" fill="white" transform="translate(0 7)"/>
</clipPath>
</defs>
</svg>
