<svg width="39" height="29" viewBox="0 0 39 29" fill="none" xmlns="http://www.w3.org/2000/svg">
<path fill-rule="evenodd" clip-rule="evenodd" d="M30.3401 3.87618C30.8056 3.81846 31.2825 3.83681 31.7374 3.92996C32.1924 4.02311 32.6147 4.18883 32.9749 4.41559C33.335 4.64235 33.6245 4.92472 33.823 5.24307C34.0216 5.56141 34.1246 5.90809 34.1248 6.25902V20.5415C34.1244 21.6055 33.652 22.6396 32.7808 23.4835C31.9095 24.3275 30.6881 24.9341 29.306 25.2093C27.9239 25.4845 26.4583 25.4129 25.1365 25.0056C23.8146 24.5983 22.7105 23.8781 21.9952 22.9566C21.28 22.0352 20.9936 20.964 21.1804 19.9092C21.3673 18.8543 22.017 17.8748 23.0288 17.1226C24.0406 16.3703 25.3579 15.8873 26.7765 15.7484C28.1951 15.6096 29.6356 15.8227 30.8748 16.3546V11.0924L14.6248 13.1066V21.7498C14.6248 21.8223 14.6166 21.8912 14.6004 21.9601C14.717 22.8893 14.4171 23.8211 13.7473 24.6103C13.0775 25.3995 12.0755 26.0018 10.8974 26.3234C9.71921 26.645 8.43109 26.6677 7.23371 26.3882C6.03632 26.1086 4.99692 25.5424 4.27743 24.7778C3.55794 24.0131 3.19878 23.093 3.2559 22.1607C3.31302 21.2285 3.78321 20.3365 4.59323 19.6236C5.40325 18.9108 6.50759 18.4172 7.7342 18.2198C8.96081 18.0224 10.2408 18.1321 11.3748 18.5321V8.27331C11.3747 7.70124 11.6475 7.14769 12.1447 6.71115C12.6419 6.2746 13.3313 5.98337 14.0901 5.88927L30.3401 3.87618ZM14.6248 10.6573L30.8748 8.64306V6.25902L14.6248 8.27331V10.6573Z" fill="#AF17D5"/>
</svg>
